HIERARCHY
ROOT Hips
{
	OFFSET 0.000000 0.000000 0.000000 
	CHANNELS 6 Xposition Yposition Zposition Zrotation Yrotation Xrotation
	JOINT LeftUpLeg
	{
		OFFSET 1.363060 -1.794630 0.839290 
		CHANNELS 3 Zrotation Yrotation Xrotation
		JOINT LeftLeg
		{
			OFFSET 2.448110 -6.726130 0.000000 
			CHANNELS 3 Zrotation Yrotation Xrotation
			JOINT LeftFoot
			{
				OFFSET 2.562200 -7.039590 0.000000 
				CHANNELS 3 Zrotation Yrotation Xrotation
				JOINT LeftToeBase
				{
					OFFSET 0.157640 -0.433110 2.322550 
					CHANNELS 3 Zrotation Yrotation Xrotation
					End Site
					{
						OFFSET 0.000000 0.000000 0.000000 
					}
				}
			}
		}
	}
	JOINT RightUpLeg
	{
		OFFSET -1.305520 -1.794630 0.839290 
		CHANNELS 3 Zrotation Yrotation Xrotation
		JOINT RightLeg
		{
			OFFSET -2.542530 -6.985550 0.000000 
			CHANNELS 3 Zrotation Yrotation Xrotation
			JOINT RightFoot
			{
				OFFSET -2.568260 -7.056230 0.000000 
				CHANNELS 3 Zrotation Yrotation Xrotation
				JOINT RightToeBase
				{
					OFFSET -0.164730 -0.452590 2.363150 
					CHANNELS 3 Zrotation Yrotation Xrotation
					End Site
					{
						OFFSET 0.000000 0.000000 0.000000 
					}
				}
			}
		}
	}
	JOINT Spine
	{
		OFFSET 0.028270 2.035590 -0.193380 
		CHANNELS 3 Zrotation Yrotation Xrotation
		JOINT Spine1
		{
			OFFSET 0.056720 2.048850 -0.042750 
			CHANNELS 3 Zrotation Yrotation Xrotation
			JOINT Neck1
			{
				OFFSET -0.054170 1.746240 0.172020 
				CHANNELS 3 Zrotation Yrotation Xrotation
				JOINT Head
				{
					OFFSET 0.104070 1.761360 -0.123970 
					CHANNELS 3 Zrotation Yrotation Xrotation
					End Site
					{
						OFFSET 0.000000 0.000000 0.000000 
					}
				}
			}
			JOINT LeftArm
			{
				OFFSET 3.362410 1.200890 -0.311210 
				CHANNELS 3 Zrotation Yrotation Xrotation
				JOINT LeftForeArm
				{
					OFFSET 4.983000 -0.000000 -0.000000 
					CHANNELS 3 Zrotation Yrotation Xrotation
					JOINT LeftHand
					{
						OFFSET 3.483560 -0.000000 -0.000000 
						CHANNELS 3 Zrotation Yrotation Xrotation
						JOINT LeftHandIndex1
						{
							OFFSET 0.715260 -0.000000 -0.000000 
							CHANNELS 3 Zrotation Yrotation Xrotation
							End Site
							{
								OFFSET 0.000000 0.000000 0.000000 
							}
						}
					}
				}
			}
			JOINT RightArm
			{
				OFFSET -3.136600 1.374050 -0.404650 
				CHANNELS 3 Zrotation Yrotation Xrotation
				JOINT RightForeArm
				{
					OFFSET -5.241900 -0.000000 -0.000000 
					CHANNELS 3 Zrotation Yrotation Xrotation
					JOINT RightHand
					{
						OFFSET -3.444170 -0.000000 -0.000000 
						CHANNELS 3 Zrotation Yrotation Xrotation
						JOINT RightHandIndex1
						{
							OFFSET -0.622530 -0.000000 -0.000000 
							CHANNELS 3 Zrotation Yrotation Xrotation
							End Site
							{
								OFFSET 0.000000 0.000000 0.000000 
							}
						}
					}
				}
			}
		}
	}
}
MOTION
Frames: 12
Frame Time: 0.041667
7.586446 17.498524 0.058449 -0.783522 -8.852917 17.299697 -36.242734 -19.126774 -19.712354 -6.261113 11.080861 18.192223 -0.585481 7.903259 8.558861 0.218300 3.008000 8.301100 29.409694 23.285047 -39.739634 -31.586201 -26.506788 113.852540 -0.069889 -26.923442 44.180931 -2.744200 -10.269000 29.852200 -1.169442 5.126370 -4.985224 0.078177 2.543851 1.898521 14.382500 -11.992547 16.723313 3.134100 -2.713800 16.385600 -68.284122 -2.407383 21.062496 18.735896 -23.538369 -6.647820 -2.059568 1.471107 -11.620128 -7.125000 0.000000 0.000000 77.335337 -3.483869 24.250792 -32.121188 34.193885 -12.362499 -0.409580 1.452957 -10.814435 7.125000 0.000000 0.000000 
7.587001 17.509393 0.064438 -0.863183 -8.876513 17.459041 -36.102548 -19.198395 -19.746726 -6.277938 11.030477 18.045650 -0.602451 7.999721 8.611600 0.216700 2.996500 8.269000 29.050677 23.633381 -39.509062 -31.778356 -26.434183 114.117090 -0.248562 -27.560656 44.839054 -2.894300 -10.522000 30.684100 -1.158281 5.120920 -4.998866 0.106462 2.542636 1.859505 14.505471 -12.027649 16.611110 3.214000 -2.755300 16.262500 -68.323421 -2.331265 21.100812 18.668557 -23.469126 -6.607954 -2.068801 1.477841 -11.617739 -7.125000 0.000000 0.000000 77.402136 -3.629442 24.180123 -32.068011 34.156322 -12.327413 -0.412703 1.453756 -10.654467 7.125000 0.000000 0.000000 
7.585226 17.518709 0.064549 -0.968134 -8.898238 17.697107 -35.886858 -19.236123 -19.899072 -6.297633 10.991076 17.897708 -0.597037 8.042053 8.715838 0.216400 2.994500 8.263400 28.614939 24.094894 -39.445801 -31.985567 -26.388561 114.393368 -0.342274 -28.416488 45.325678 -3.079500 -10.822600 31.684000 -1.146405 5.103500 -5.023328 0.130227 2.536141 1.812616 14.521255 -12.187028 16.574180 3.191100 -2.820100 16.260200 -68.337569 -2.225933 21.234242 18.659594 -23.463410 -6.590093 -2.083664 1.439409 -11.687414 -7.125000 0.000000 0.000000 77.471148 -3.748783 24.161897 -32.062832 34.150016 -12.320702 -0.407669 1.447186 -10.722511 7.125000 0.000000 0.000000 
7.584893 17.529468 0.067654 -1.054989 -8.870849 17.888469 -35.702591 -19.323753 -19.982355 -6.316769 10.944654 17.746388 -0.597079 8.092406 8.793681 0.217200 3.000100 8.279100 28.144103 24.456733 -39.317227 -32.159480 -26.338246 114.620580 -0.448193 -29.140187 45.788439 -3.283300 -11.140100 32.753700 -1.134368 5.068142 -5.047444 0.130313 2.521353 1.748126 14.561838 -12.323594 16.532723 3.197300 -2.881900 16.241000 -68.338972 -2.122457 21.324863 18.604538 -23.406750 -6.559467 -2.096451 1.446840 -11.725957 -7.125000 0.000000 0.000000 77.539462 -3.874345 24.138979 -32.007007 34.106677 -12.283520 -0.406615 1.458199 -10.717264 7.125000 0.000000 0.000000 
7.585670 17.540558 0.072423 -1.172583 -8.829414 18.038664 -35.515195 -19.367661 -20.028566 -6.330146 10.897267 17.616238 -0.590980 8.119166 8.892825 0.221000 3.025900 8.350900 27.704832 24.833340 -39.120797 -32.312289 -26.293304 114.792229 -0.616387 -29.788070 46.371351 -3.512100 -11.481200 33.920400 -1.140518 5.079442 -5.075157 0.028986 2.528450 1.627300 14.625735 -12.495998 16.468462 3.204600 -2.962100 16.157000 -68.275238 -1.974164 21.551172 18.553043 -23.352727 -6.529652 -2.104999 1.452190 -11.774619 -7.125000 0.000000 0.000000 77.732449 -4.108315 24.023550 -31.972046 34.091838 -12.268403 -0.418546 1.470333 -10.599353 7.125000 0.000000 0.000000 
7.586890 17.550096 0.074530 -1.252211 -8.721637 18.193204 -35.337507 -19.464135 -20.089796 -6.348345 10.851140 17.473404 -0.574798 8.125743 9.019792 0.224600 3.050400 8.419000 27.181963 25.133417 -38.976598 -32.436684 -26.255695 114.952929 -0.705209 -30.268240 46.708445 -3.514400 -11.484600 33.932200 -1.082491 4.942920 -5.075340 0.196688 2.462160 1.697545 14.604910 -12.560259 16.453952 3.191300 -2.997500 16.196300 -68.504963 -1.981118 21.378549 18.491745 -23.285635 -6.492127 -2.117997 1.460047 -11.713165 -7.125000 0.000000 0.000000 77.567257 -4.130946 24.178747 -31.936773 34.056381 -12.242505 -0.418340 1.480577 -10.494092 7.125000 0.000000 0.000000 
7.589108 17.560078 0.084068 -1.411025 -8.758863 18.248845 -35.168330 -19.450706 -19.992710 -6.348907 10.790908 17.366603 -0.605221 8.239876 9.051962 0.224100 3.047500 8.411100 26.756017 25.643783 -38.637086 -32.516970 -26.230784 115.028045 -0.743393 -30.760681 46.914441 -3.666700 -11.703200 34.689900 -1.049184 4.935992 -5.069941 0.282788 2.453992 1.754663 14.610322 -12.653121 16.427356 3.189900 -3.049000 16.186100 -68.645718 -1.972192 21.351438 18.401137 -23.188307 -6.440367 -2.134460 1.475996 -11.712072 -7.125000 0.000000 0.000000 77.469265 -4.200451 24.292262 -31.788390 33.933516 -12.134618 -0.424985 1.465794 -10.460893 7.125000 0.000000 0.000000 
7.591770 17.569505 0.091166 -1.552300 -8.712655 18.348108 -34.977789 -19.499568 -19.977621 -6.354541 10.746911 17.264212 -0.615625 8.303971 9.113101 0.226200 3.061700 8.450500 26.244593 26.087002 -38.383715 -32.591893 -26.217357 115.088163 -0.822129 -31.105521 47.182286 -3.815900 -11.911300 35.419000 -1.023697 4.900339 -5.079456 0.298345 2.435254 1.733990 14.657365 -12.751141 16.383505 3.216800 -3.103000 16.160700 -68.757388 -1.894627 21.369658 18.340773 -23.122630 -6.405232 -2.151589 1.486226 -11.720502 -7.125000 0.000000 0.000000 77.478904 -4.329552 24.349454 -31.693970 33.856789 -12.065862 -0.421968 1.458590 -10.320796 7.125000 0.000000 0.000000 
7.592879 17.580374 0.097155 -1.682626 -8.614008 18.467376 -34.785035 -19.534980 -19.980585 -6.363000 10.701798 17.161009 -0.592327 8.261012 9.205869 0.235200 3.121300 8.616700 25.698876 26.545833 -38.158031 -32.636400 -26.220102 115.118797 -0.824488 -31.287345 47.228609 -3.891300 -12.014300 35.782700 -0.997721 4.842681 -5.081229 0.321800 2.401187 1.765063 14.713519 -12.905432 16.335404 3.236100 -3.173300 16.157900 -68.838977 -1.892635 21.369809 18.289894 -23.064840 -6.376245 -2.164570 1.497587 -11.733688 -7.125000 0.000000 0.000000 77.469783 -4.374480 24.393536 -31.598511 33.781851 -12.000602 -0.425536 1.460005 -10.190557 7.125000 0.000000 0.000000 
7.592879 17.589025 0.098154 -1.785950 -8.477932 18.658966 -34.561922 -19.591419 -20.106426 -6.377797 10.671028 17.046005 -0.564127 8.219477 9.307631 0.230500 3.090100 8.529700 25.039977 27.016335 -38.070419 -32.681477 -26.245939 115.156752 -0.858817 -31.205383 47.300050 -3.891700 -12.014800 35.784500 -0.948382 4.720163 -5.085351 0.443845 2.339124 1.825984 14.711506 -13.008743 16.312118 3.224700 -3.218500 16.206100 -69.027019 -1.926495 21.261333 18.247433 -23.012330 -6.346902 -2.177072 1.496696 -11.710010 -7.125000 0.000000 0.000000 77.346827 -4.374985 24.498814 -31.521627 33.710463 -11.943079 -0.430440 1.454843 -10.050650 7.125000 0.000000 0.000000 
7.593101 17.598341 0.102257 -1.885566 -8.356565 18.807289 -34.370621 -19.660090 -20.164362 -6.390546 10.631405 16.928039 -0.547167 8.214724 9.418810 0.228000 3.073600 8.483600 24.350951 27.523745 -37.937683 -32.715606 -26.279376 115.150206 -0.914327 -31.152893 47.422200 -4.034300 -12.205900 36.464300 -0.914255 4.634991 -5.094454 0.510432 2.297738 1.825345 14.735042 -13.149384 16.274379 3.221000 -3.285400 16.197900 -69.158604 -1.875852 21.218862 18.216906 -22.979160 -6.328837 -2.179690 1.505531 -11.703542 -7.125000 0.000000 0.000000 77.308156 -4.443474 24.569553 -31.434196 33.636019 -11.881949 -0.431570 1.461354 -9.924451 7.125000 0.000000 0.000000 
7.595208 17.608434 0.109799 -2.001074 -8.258471 18.930445 -34.194301 -19.704551 -20.180865 -6.399136 10.590729 16.826661 -0.532454 8.201093 9.500700 0.228200 3.074700 8.486800 23.643482 28.050618 -37.783097 -32.723900 -26.327214 115.087521 -0.961281 -31.029867 47.502799 -4.004100 -12.165800 36.321000 -0.889379 4.580859 -5.100310 0.527705 2.268045 1.827188 14.807960 -13.283783 16.202451 3.258000 -3.359300 16.148800 -69.247224 -1.815651 21.246018 18.176905 -22.936934 -6.304426 -2.185587 1.511469 -11.733517 -7.125000 0.000000 0.000000 77.298214 -4.547224 24.649802 -31.329884 33.552706 -11.807875 -0.429349 1.453694 -9.716035 7.125000 0.000000 0.000000 
